<svg width="6" height="6" viewBox="0 0 6 6" fill="none" xmlns="http://www.w3.org/2000/svg">
<rect x="4.66666" y="6" width="0.666667" height="0.666667" transform="rotate(-180 4.66666 6)" fill="#D9D9D9"/>
<rect x="4" y="5.33334" width="0.666667" height="0.666667" transform="rotate(-180 4 5.33334)" fill="#D9D9D9"/>
<rect x="3.33331" y="4.66666" width="0.666667" height="0.666667" transform="rotate(-180 3.33331 4.66666)" fill="#D9D9D9"/>
<rect x="2.66666" y="4" width="0.666667" height="0.666667" transform="rotate(-180 2.66666 4)" fill="#D9D9D9"/>
<rect x="2" y="3.33334" width="0.666667" height="0.666667" transform="rotate(-180 2 3.33334)" fill="#D9D9D9"/>
<rect x="2.66666" y="2.66666" width="0.666667" height="0.666667" transform="rotate(-180 2.66666 2.66666)" fill="#D9D9D9"/>
<rect x="3.33331" y="2" width="0.666667" height="0.666667" transform="rotate(-180 3.33331 2)" fill="#D9D9D9"/>
<rect x="4" y="1.33334" width="0.666667" height="0.666667" transform="rotate(-180 4 1.33334)" fill="#D9D9D9"/>
<rect x="4.66666" y="0.666664" width="0.666667" height="0.666667" transform="rotate(-180 4.66666 0.666664)" fill="#D9D9D9"/>
</svg>
