<svg width="6" height="6" viewBox="0 0 6 6" fill="none" xmlns="http://www.w3.org/2000/svg">
<path d="M4 4H4.66667V4.66667H4V4Z" fill="black"/>
<path d="M4.66667 4.66667H5.33333V5.33333H4.66667V4.66667Z" fill="black"/>
<path d="M5.33333 5.33333H6V6H5.33333V5.33333Z" fill="black"/>
<path d="M0 1.33333H0.666667V3.33333H0V1.33333Z" fill="black"/>
<path d="M1.33333 4V3.33333H0.666667V4H1.33333Z" fill="black"/>
<path d="M3.33333 4H1.33333V4.66667H3.33333V4Z" fill="black"/>
<path d="M4 3.33333H3.33333V4H4V3.33333Z" fill="black"/>
<path d="M4 1.33333V3.33333H4.66667V1.33333H4Z" fill="black"/>
<path d="M3.33333 0.666667L4 0.666667V1.33333H3.33333V0.666667Z" fill="black"/>
<path d="M1.33333 0.666667V1.33333H0.666667V0.666667H1.33333Z" fill="black"/>
<path d="M1.33333 0.666667H3.33333V0H1.33333V0.666667Z" fill="black"/>
</svg>
